        <svg
          width="70"
          height="70"
          viewBox="0 0 48 48"
          fill="none"
          xmlns="http://www.w3.org/2000/svg"
        >
          <path
            fill-rule="evenodd"
            clip-rule="evenodd"
            d="M28.0001 16C27.5989 16 27.2366 16.2397 27.0797 16.6089C26.9228 16.9782 27.0018 17.4054 27.2803 17.6942L28.0713 18.5145L25.293 21.2929C24.9024 21.6834 24.9024 22.3166 25.293 22.7071C25.6835 23.0976 26.3167 23.0976 26.7072 22.7071L29.4599 19.9544L30.2802 20.8051C30.5633 21.0986 30.9962 21.1908 31.3743 21.0382C31.7524 20.8856 32 20.5187 32 20.1109L32 17C32 16.4477 31.5523 16 31 16L28.0001 16ZM19.5555 32C19.9599 32 20.3245 31.7564 20.4793 31.3827C20.6341 31.009 20.5486 30.5789 20.2626 30.2929L19.692 29.7223L22.7071 26.7071C23.0976 26.3166 23.0976 25.6834 22.7071 25.2929C22.3166 24.9024 21.6834 24.9024 21.2929 25.2929L18.2777 28.3081L17.7071 27.7374C17.4211 27.4514 16.991 27.3659 16.6173 27.5206C16.2436 27.6754 16 28.0401 16 28.4445L16 31C16 31.5523 16.4477 32 17 32L19.5555 32Z"
            fill="#EAEAEA"
          />
        </svg>