<svg width="48" height="48" viewBox="0 0 48 48" fill="none" xmlns="http://www.w3.org/2000/svg">
<path fill-rule="evenodd" clip-rule="evenodd" d="M31 24C31 27.866 27.866 31 24 31C20.134 31 17 27.866 17 24C17 20.134 20.134 17 24 17C27.866 17 31 20.134 31 24ZM33 24C33 28.9706 28.9706 33 24 33C19.0294 33 15 28.9706 15 24C15 19.0294 19.0294 15 24 15C28.9706 15 33 19.0294 33 24ZM25 20C25 19.4477 24.5523 19 24 19C23.4477 19 23 19.4477 23 20V24C23 24.5523 23.4477 25 24 25C24.5523 25 25 24.5523 25 24V20ZM25 27C25 26.4477 24.5523 26 24 26C23.4477 26 23 26.4477 23 27V27.5C23 28.0523 23.4477 28.5 24 28.5C24.5523 28.5 25 28.0523 25 27.5V27Z" fill="#EAEAEA"/>
</svg>
