<svg width="48" height="48" viewBox="0 0 48 48" fill="none" xmlns="http://www.w3.org/2000/svg">
<path fill-rule="evenodd" clip-rule="evenodd" d="M31 24C31 27.866 27.866 31 24 31C20.134 31 17 27.866 17 24C17 20.134 20.134 17 24 17C27.866 17 31 20.134 31 24ZM33 24C33 28.9706 28.9706 33 24 33C19.0294 33 15 28.9706 15 24C15 19.0294 19.0294 15 24 15C28.9706 15 33 19.0294 33 24ZM28.2474 22.1644C28.6143 21.7516 28.5771 21.1195 28.1644 20.7526C27.7516 20.3857 27.1195 20.4229 26.7526 20.8356L23.3833 24.626L21.6247 23.2191C21.1934 22.8741 20.5641 22.944 20.2191 23.3753C19.8741 23.8066 19.944 24.4359 20.3753 24.7809L22.8753 26.7809C23.2908 27.1133 23.8939 27.0621 24.2474 26.6644L28.2474 22.1644Z" fill="#EAEAEA"/>
</svg>
