<svg width="48" height="48" viewBox="0 0 48 48" fill="none" xmlns="http://www.w3.org/2000/svg">
<path fill-rule="evenodd" clip-rule="evenodd" d="M31 24C31 27.866 27.866 31 24 31C22.4277 31 20.9764 30.4816 19.8078 29.6064L29.6064 19.8078C30.4816 20.9764 31 22.4277 31 24ZM18.3936 28.1922L28.1922 18.3936C27.0236 17.5184 25.5723 17 24 17C20.134 17 17 20.134 17 24C17 25.5723 17.5184 27.0236 18.3936 28.1922ZM33 24C33 28.9706 28.9706 33 24 33C19.0294 33 15 28.9706 15 24C15 19.0294 19.0294 15 24 15C28.9706 15 33 19.0294 33 24Z" fill="#EAEAEA"/>
</svg>
